<?xml version="1.0" encoding="UTF-8" standalone="no"?>
<!-- Created with Inkscape (http://www.inkscape.org/) -->

<svg
   width="12.7mm"
   height="12.7mm"
   viewBox="0 0 12.7 12.7"
   version="1.1"
   id="svg5"
   xml:space="preserve"
   inkscape:version="1.2.1 (9c6d41e410, 2022-07-14)"
   sodipodi:docname="GastronoMateLogos.svg"
   inkscape:export-filename="GastronoMateUsers.svg"
   inkscape:export-xdpi="96"
   inkscape:export-ydpi="96"
   xmlns:inkscape="http://www.inkscape.org/namespaces/inkscape"
   xmlns:sodipodi="http://sodipodi.sourceforge.net/DTD/sodipodi-0.dtd"
   xmlns="http://www.w3.org/2000/svg"
   xmlns:svg="http://www.w3.org/2000/svg"><sodipodi:namedview
     id="namedview7"
     pagecolor="#ffffff"
     bordercolor="#000000"
     borderopacity="0.25"
     inkscape:showpageshadow="2"
     inkscape:pageopacity="0.0"
     inkscape:pagecheckerboard="0"
     inkscape:deskcolor="#d1d1d1"
     inkscape:document-units="mm"
     showgrid="true"
     inkscape:lockguides="true"
     showguides="true"
     inkscape:zoom="14.217246"
     inkscape:cx="26.306079"
     inkscape:cy="26.51709"
     inkscape:window-width="1920"
     inkscape:window-height="1009"
     inkscape:window-x="-8"
     inkscape:window-y="-8"
     inkscape:window-maximized="1"
     inkscape:current-layer="Vector"><inkscape:grid
       type="xygrid"
       id="grid2135" /></sodipodi:namedview><defs
     id="defs2" /><g
     inkscape:label="Livello 1"
     inkscape:groupmode="layer"
     id="layer1"><g
       style="fill:none"
       id="g622"
       transform="matrix(4.2545336,0,0,4.2545336,35.376199,117.83517)"><g
         id="Vector"><g
           id="g2143"
           transform="translate(-0.05484985,0.05566232)"><path
             d="m -6.9285562,-25.308235 c 0,0 -0.1566418,0 -0.1566418,-0.156642 0,-0.156642 0.1566418,-0.626567 0.7832088,-0.626567 0.6265671,0 0.7832088,0.469925 0.7832088,0.626567 0,0.156642 -0.1566417,0.156642 -0.1566417,0.156642 z"
             fill="#000000"
             id="path596"
             style="fill:#105241;fill-opacity:1;stroke-width:0.156642" /><path
             d="m -6.3019892,-26.248086 c 0.2595397,0 0.4699253,-0.210393 0.4699253,-0.469925 0,-0.259532 -0.2103856,-0.469925 -0.4699253,-0.469925 -0.2595319,0 -0.4699252,0.210393 -0.4699252,0.469925 0,0.259532 0.2103933,0.469925 0.4699252,0.469925 z"
             fill="#000000"
             id="path598"
             style="fill:#105241;fill-opacity:1;stroke-width:0.156642" /><path
             d="m -7.2079487,-25.308235 c -0.022055,-0.0445 -0.033891,-0.09726 -0.033891,-0.156642 0,-0.212328 0.1063676,-0.430671 0.3032475,-0.582712 -0.086126,-0.02755 -0.1865337,-0.04386 -0.3032475,-0.04386 -0.626567,0 -0.7832088,0.469925 -0.7832088,0.626567 0,0.156642 0.1566418,0.156642 0.1566418,0.156642 z"
             fill="#000000"
             id="path600"
             style="fill:#105241;fill-opacity:1;stroke-width:0.156642" /><path
             d="m -7.3201606,-26.248086 c 0.2162769,0 0.3916044,-0.175327 0.3916044,-0.391604 0,-0.216277 -0.1753275,-0.391604 -0.3916044,-0.391604 -0.2162768,0 -0.3916044,0.175327 -0.3916044,0.391604 0,0.216277 0.1753276,0.391604 0.3916044,0.391604 z"
             fill="#000000"
             id="path602"
             style="fill:#105241;fill-opacity:1;stroke-width:0.156642" /></g></g></g></g></svg>
