<?xml version="1.0" encoding="UTF-8" standalone="no"?>
<!-- Created with Inkscape (http://www.inkscape.org/) -->

<svg
   width="12.7mm"
   height="12.7mm"
   viewBox="0 0 12.7 12.7"
   version="1.1"
   id="svg5"
   xml:space="preserve"
   inkscape:version="1.2.1 (9c6d41e410, 2022-07-14)"
   sodipodi:docname="GastronoMateLogos.svg"
   inkscape:export-filename="GastronoMateRecipes.svg"
   inkscape:export-xdpi="96"
   inkscape:export-ydpi="96"
   xmlns:inkscape="http://www.inkscape.org/namespaces/inkscape"
   xmlns:sodipodi="http://sodipodi.sourceforge.net/DTD/sodipodi-0.dtd"
   xmlns="http://www.w3.org/2000/svg"
   xmlns:svg="http://www.w3.org/2000/svg"><sodipodi:namedview
     id="namedview7"
     pagecolor="#ffffff"
     bordercolor="#000000"
     borderopacity="0.25"
     inkscape:showpageshadow="2"
     inkscape:pageopacity="0.0"
     inkscape:pagecheckerboard="0"
     inkscape:deskcolor="#d1d1d1"
     inkscape:document-units="mm"
     showgrid="true"
     inkscape:lockguides="true"
     showguides="true"
     inkscape:zoom="11.313709"
     inkscape:cx="34.471456"
     inkscape:cy="36.769553"
     inkscape:window-width="1920"
     inkscape:window-height="1009"
     inkscape:window-x="-8"
     inkscape:window-y="-8"
     inkscape:window-maximized="1"
     inkscape:current-layer="svg5"><inkscape:grid
       type="xygrid"
       id="grid2135" /></sodipodi:namedview><defs
     id="defs2" /><g
     inkscape:groupmode="layer"
     id="layer4"
     inkscape:label="Layer 0"
     style="display:none;fill:#000000"
     sodipodi:insensitive="true"><rect
       style="opacity:0.99;fill:#000000;fill-opacity:1;fill-rule:evenodd;stroke:#ffffff;stroke-width:0.51;stroke-opacity:0"
       id="rect3737"
       width="11.201935"
       height="11.272092"
       x="0.91205722"
       y="0.7951268"
       ry="0.15964203" /></g><g
     inkscape:label="Livello 1"
     inkscape:groupmode="layer"
     id="layer1"
     style="display:inline"><g
       style="display:none;fill:none"
       id="g622"
       transform="matrix(4.2545336,0,0,4.2545336,35.376199,117.83517)"
       sodipodi:insensitive="true"><g
         id="Vector"
         style="display:inline"><g
           id="g2143"
           transform="translate(-0.05484985,0.05566232)"><path
             d="m -6.9285562,-25.308235 c 0,0 -0.1566418,0 -0.1566418,-0.156642 0,-0.156642 0.1566418,-0.626567 0.7832088,-0.626567 0.6265671,0 0.7832088,0.469925 0.7832088,0.626567 0,0.156642 -0.1566417,0.156642 -0.1566417,0.156642 z"
             fill="#000000"
             id="path596"
             style="fill:#105241;fill-opacity:1;stroke-width:0.156642" /><path
             d="m -6.3019892,-26.248086 c 0.2595397,0 0.4699253,-0.210393 0.4699253,-0.469925 0,-0.259532 -0.2103856,-0.469925 -0.4699253,-0.469925 -0.2595319,0 -0.4699252,0.210393 -0.4699252,0.469925 0,0.259532 0.2103933,0.469925 0.4699252,0.469925 z"
             fill="#000000"
             id="path598"
             style="fill:#105241;fill-opacity:1;stroke-width:0.156642" /><path
             d="m -7.2079487,-25.308235 c -0.022055,-0.0445 -0.033891,-0.09726 -0.033891,-0.156642 0,-0.212328 0.1063676,-0.430671 0.3032475,-0.582712 -0.086126,-0.02755 -0.1865337,-0.04386 -0.3032475,-0.04386 -0.626567,0 -0.7832088,0.469925 -0.7832088,0.626567 0,0.156642 0.1566418,0.156642 0.1566418,0.156642 z"
             fill="#000000"
             id="path600"
             style="fill:#105241;fill-opacity:1;stroke-width:0.156642" /><path
             d="m -7.3201606,-26.248086 c 0.2162769,0 0.3916044,-0.175327 0.3916044,-0.391604 0,-0.216277 -0.1753275,-0.391604 -0.3916044,-0.391604 -0.2162768,0 -0.3916044,0.175327 -0.3916044,0.391604 0,0.216277 0.1753276,0.391604 0.3916044,0.391604 z"
             fill="#000000"
             id="path602"
             style="fill:#105241;fill-opacity:1;stroke-width:0.156642" /></g></g></g></g><g
     inkscape:groupmode="layer"
     id="layer2"
     inkscape:label="Livello 2"
     style="display:none"
     sodipodi:insensitive="true"><g
       style="display:inline;fill:none"
       id="g3024"
       transform="matrix(0.52918484,0,0,0.54080375,2.1213836,2.6424979)"><path
         id="Subtract"
         d="M 16,2 C 16,0.895431 15.1046,0 14,0 H 2 C 0.895431,0 0,0.895431 0,2 v 8 c 0,1.1046 0.895431,2 2,2 h 9.5858 c 0.2652,0 0.5196,0.1054 0.7071,0.2929 l 2.8535,2.8535 C 15.4614,15.4614 16,15.2383 16,14.7929 Z M 3.5,3 h 9 C 12.7761,3 13,3.22386 13,3.5 13,3.77614 12.7761,4 12.5,4 h -9 C 3.22386,4 3,3.77614 3,3.5 3,3.22386 3.22386,3 3.5,3 Z m 0,2.5 h 9 c 0.2761,0 0.5,0.22386 0.5,0.5 0,0.27614 -0.2239,0.5 -0.5,0.5 h -9 C 3.22386,6.5 3,6.27614 3,6 3,5.72386 3.22386,5.5 3.5,5.5 Z m 0,2.5 h 5 C 8.77614,8 9,8.22386 9,8.5 9,8.77614 8.77614,9 8.5,9 h -5 C 3.22386,9 3,8.77614 3,8.5 3,8.22386 3.22386,8 3.5,8 Z"
         fill="#000000"
         style="fill:#105241;fill-opacity:1" /></g></g><g
     id="g3402"
     style="fill:none"
     transform="matrix(0.02902734,0,0,0.02854667,2.9291667,1.3266139)"><path
       id="path3293"
       style="display:inline;fill:#105241;fill-opacity:1"
       d="m 23.992959,-0.00279833 c -13.279986,0 -23.99800658,10.72384633 -23.99800658,24.00383233 V 327.99528 c 0,13.27998 10.71802058,24.00383 23.99800658,24.00383 H 231.99942 c 13.27999,0 23.99801,-10.72385 23.99801,-24.00383 V 87.993153 L 167.9988,-0.00279833 Z M 41.688819,67.320168 H 214.30356 c 3.04674,0 5.50103,2.456409 5.50103,5.503142 0,3.046732 -2.45429,5.503141 -5.50103,5.503141 H 41.688819 c -3.046733,0 -5.501027,-2.456409 -5.501027,-5.503141 0,-3.046733 2.454294,-5.503142 5.501027,-5.503142 z m 0,38.648702 H 214.30356 c 3.04674,0 5.50103,2.45641 5.50103,5.50314 0,3.04674 -2.45429,5.50315 -5.50103,5.50315 H 41.688819 c -3.046733,0 -5.501027,-2.45641 -5.501027,-5.50315 0,-3.04673 2.454294,-5.50314 5.501027,-5.50314 z m 0,38.64871 H 214.30356 c 3.04674,0 5.50103,2.4383 5.50103,5.48504 0,3.04673 -2.45429,5.50314 -5.50103,5.50314 H 41.688819 c -3.046733,0 -5.501027,-2.45641 -5.501027,-5.50314 0,-3.04674 2.454294,-5.48504 5.501027,-5.48504 z m 0,38.6306 H 214.30356 c 3.04674,0 5.50103,2.45641 5.50103,5.50314 0,3.04674 -2.45429,5.50314 -5.50103,5.50314 H 41.688819 c -3.046733,0 -5.501027,-2.4564 -5.501027,-5.50314 0,-3.04673 2.454294,-5.50314 5.501027,-5.50314 z m 0,38.64871 H 214.30356 c 3.04674,0 5.50103,2.4564 5.50103,5.50314 0,3.04673 -2.45429,5.50314 -5.50103,5.50314 H 41.688819 c -3.046733,0 -5.501027,-2.45641 -5.501027,-5.50314 0,-3.04674 2.454294,-5.50314 5.501027,-5.50314 z m 0,38.6487 H 214.30356 c 3.04674,0 5.50103,2.43831 5.50103,5.48504 0,3.04673 -2.45429,5.50314 -5.50103,5.50314 H 41.688819 c -3.046733,0 -5.501027,-2.45641 -5.501027,-5.50314 0,-3.04673 2.454294,-5.48504 5.501027,-5.48504 z m 0,38.6306 H 214.30356 c 3.04674,0 5.50103,2.45641 5.50103,5.50315 0,3.04673 -2.45429,5.50314 -5.50103,5.50314 H 41.688819 c -3.046733,0 -5.501027,-2.45641 -5.501027,-5.50314 0,-3.04674 2.454294,-5.50315 5.501027,-5.50315 z" /><path
       d="m 168,0 88,88 h -88 z"
       fill="#266857"
       id="path3295"
       style="display:inline"
       sodipodi:insensitive="true" /></g></svg>
