<?xml version="1.0" encoding="UTF-8" standalone="no"?>
<svg
   width="44"
   height="44"
   viewBox="0 0 44 44"
   fill="none"
   version="1.1"
   id="svg6"
   sodipodi:docname="Like.svg"
   inkscape:version="1.2.1 (9c6d41e410, 2022-07-14)"
   xmlns:inkscape="http://www.inkscape.org/namespaces/inkscape"
   xmlns:sodipodi="http://sodipodi.sourceforge.net/DTD/sodipodi-0.dtd"
   xmlns="http://www.w3.org/2000/svg"
   xmlns:svg="http://www.w3.org/2000/svg">
  <defs
     id="defs10" />
  <sodipodi:namedview
     id="namedview8"
     pagecolor="#ffffff"
     bordercolor="#000000"
     borderopacity="0.25"
     inkscape:showpageshadow="2"
     inkscape:pageopacity="0.0"
     inkscape:pagecheckerboard="0"
     inkscape:deskcolor="#d1d1d1"
     showgrid="false"
     inkscape:zoom="6.6612673"
     inkscape:cx="23.043663"
     inkscape:cy="20.716779"
     inkscape:window-width="1920"
     inkscape:window-height="1009"
     inkscape:window-x="-8"
     inkscape:window-y="-8"
     inkscape:window-maximized="1"
     inkscape:current-layer="svg6" />
  <rect
     width="44"
     height="44"
     rx="15"
     fill="#ABF4A1"
     id="rect2" />
  <path
     d="m 21.14532,14.016298 0.8547,1.407 0.8546,-1.407 c 1.4957,-2.4624 4.1208,-4.0191997 7.0999,-4.0191997 4.6544,0 8.5455,4.0078997 8.5455,8.9999997 0,2.2128 -0.9727,4.5118 -2.5537,6.7703 -1.5747,2.2496 -3.6945,4.3753 -5.8471,6.2204 -2.1482,1.8413 -4.3012,3.3796 -5.9196,4.4585 -0.8082,0.5388 -1.4808,0.9616 -1.9498,1.2487 -0.0824,0.0505 -0.1585,0.0967 -0.2279,0.1386 -0.0697,-0.0424 -0.1462,-0.0892 -0.229,-0.1403 -0.4691,-0.2893 -1.1419,-0.715 -1.9503,-1.2572 -1.6188,-1.0856 -3.7722,-2.6318 -5.9208,-4.4786 -2.1532,-1.8507 -4.2736,-3.9795 -5.84869,-6.2259 -1.58184,-2.256 -2.55315,-4.5441 -2.55315,-6.7345 0,-4.9921 3.89107,-8.9999997 8.54544,-8.9999997 2.9791,0 5.6042,1.5567997 7.0999,4.0191997 z"
     fill="#ffffff"
     stroke="#0b5a18"
     stroke-width="2"
     id="path4" />
  <path
     d="m 21.14532,14.016298 0.8547,1.407 0.8546,-1.407 c 1.4957,-2.4624 4.1208,-4.0191995 7.0999,-4.0191995 4.6544,0 8.5455,4.0078995 8.5455,8.9999995 0,2.2128 -0.9727,4.5118 -2.5537,6.7703 -1.5747,2.2496 -3.6945,4.3753 -5.8471,6.2204 -2.1482,1.8413 -4.3012,3.3796 -5.9196,4.4585 -0.8082,0.5388 -1.4808,0.9616 -1.9498,1.2487 -0.0824,0.0505 -0.1585,0.0967 -0.2279,0.1386 -0.0697,-0.0424 -0.1462,-0.0892 -0.229,-0.1403 -0.4691,-0.2893 -1.1419,-0.715 -1.9503,-1.2572 -1.6188,-1.0856 -3.7722,-2.6318 -5.9208,-4.4786 -2.1532,-1.8507 -4.2736001,-3.9795 -5.84869,-6.2259 -1.58184,-2.256 -2.55315,-4.5441 -2.55315,-6.7345 0,-4.9921 3.89107,-8.9999995 8.54544,-8.9999995 2.9791,0 5.6042,1.5567995 7.0999,4.0191995 z"
     fill="#ffffff"
     stroke="#0b5a18"
     stroke-width="2"
     id="path4-9"
     style="display:none;fill:#0b5a18;fill-opacity:1"
     inkscape:label="path4-9" />
</svg>
