<?xml version="1.0" encoding="UTF-8" standalone="no"?>
<svg
   width="29.757109"
   height="28.38715"
   viewBox="0 0 29.757109 28.38715"
   fill="none"
   version="1.1"
   id="svg33"
   sodipodi:docname="greyStar.svg"
   inkscape:export-filename="HalfStar.svg"
   inkscape:export-xdpi="96"
   inkscape:export-ydpi="96"
   xmlns:inkscape="http://www.inkscape.org/namespaces/inkscape"
   xmlns:sodipodi="http://sodipodi.sourceforge.net/DTD/sodipodi-0.dtd"
   xmlns="http://www.w3.org/2000/svg"
   xmlns:svg="http://www.w3.org/2000/svg">
  <defs
     id="defs37" />
  <sodipodi:namedview
     id="namedview35"
     pagecolor="#ffffff"
     bordercolor="#000000"
     borderopacity="0.25"
     inkscape:showpageshadow="2"
     inkscape:pageopacity="0.0"
     inkscape:pagecheckerboard="0"
     inkscape:deskcolor="#d1d1d1"
     showgrid="false" />
  <mask
     id="path-1-inside-1_112_17"
     fill="#ffffff">
    <path
       d="m 15.9943,0.690983 c 0.2994,-0.921311 1.6028,-0.921311 1.9021,0 L 21.2111,10.8926 c 0.1339,0.412 0.5179,0.691 0.9511,0.691 h 10.7266 c 0.9687,0 1.3715,1.2396 0.5878,1.809 l -8.678,6.305 c -0.3505,0.2546 -0.4972,0.706 -0.3633,1.118 L 27.75,31.0172 c 0.2994,0.9213 -0.7551,1.6875 -1.5388,1.1181 l -8.6781,-6.305 c -0.3504,-0.2546 -0.825,-0.2546 -1.1755,0 l -8.67804,6.305 C 6.89584,32.7047 5.84136,31.9385 6.14071,31.0172 L 9.45542,20.8156 C 9.5893,20.4036 9.44264,19.9522 9.09215,19.6976 L 0.414132,13.3926 C -0.369582,12.8232 0.0331935,11.5836 1.00192,11.5836 H 11.7285 c 0.4333,0 0.8172,-0.279 0.9511,-0.691 z"
       id="path2" />
    <path
       d="m 65.9943,0.690983 c 0.2994,-0.921311 1.6028,-0.921311 1.9021,0 L 71.2111,10.8926 c 0.1339,0.412 0.5179,0.691 0.9511,0.691 h 10.7266 c 0.9687,0 1.3715,1.2396 0.5878,1.809 l -8.678,6.305 c -0.3505,0.2546 -0.4972,0.706 -0.3633,1.118 L 77.75,31.0172 c 0.2994,0.9213 -0.7551,1.6875 -1.5388,1.1181 l -8.6781,-6.305 c -0.3504,-0.2546 -0.825,-0.2546 -1.1755,0 l -8.678,6.305 c -0.7838,0.5694 -1.8382,-0.1968 -1.5389,-1.1181 l 3.3147,-10.2016 c 0.1339,-0.412 -0.0128,-0.8634 -0.3632,-1.118 l -8.6781,-6.305 c -0.7837,-0.5694 -0.3809,-1.809 0.5878,-1.809 h 10.7266 c 0.4333,0 0.8172,-0.279 0.9511,-0.691 z"
       id="path4" />
    <path
       d="m 115.994,0.690983 c 0.3,-0.921311 1.603,-0.921311 1.902,0 l 3.315,10.201617 c 0.134,0.412 0.518,0.691 0.951,0.691 h 10.727 c 0.969,0 1.371,1.2396 0.588,1.809 l -8.678,6.305 c -0.351,0.2546 -0.498,0.706 -0.364,1.118 l 3.315,10.2016 c 0.299,0.9213 -0.755,1.6875 -1.539,1.1181 l -8.678,-6.305 c -0.35,-0.2546 -0.825,-0.2546 -1.175,0 l -8.678,6.305 c -0.784,0.5694 -1.839,-0.1968 -1.539,-1.1181 l 3.314,-10.2016 c 0.134,-0.412 -0.012,-0.8634 -0.363,-1.118 l -8.678,-6.305 c -0.7836,-0.5694 -0.381,-1.809 0.588,-1.809 h 10.727 c 0.433,0 0.817,-0.279 0.951,-0.691 z"
       id="path6" />
    <path
       d="m 165.994,0.690983 c 0.3,-0.921311 1.603,-0.921311 1.902,0 l 3.315,10.201617 c 0.134,0.412 0.518,0.691 0.951,0.691 h 10.727 c 0.969,0 1.371,1.2396 0.588,1.809 l -8.678,6.305 c -0.351,0.2546 -0.498,0.706 -0.364,1.118 l 3.315,10.2016 c 0.299,0.9213 -0.755,1.6875 -1.539,1.1181 l -8.678,-6.305 c -0.35,-0.2546 -0.825,-0.2546 -1.175,0 l -8.678,6.305 c -0.784,0.5694 -1.839,-0.1968 -1.539,-1.1181 l 3.314,-10.2016 c 0.134,-0.412 -0.012,-0.8634 -0.363,-1.118 l -8.678,-6.305 c -0.784,-0.5694 -0.381,-1.809 0.588,-1.809 h 10.727 c 0.433,0 0.817,-0.279 0.951,-0.691 z"
       id="path8" />
    <path
       d="m 215.994,0.690983 c 0.3,-0.921311 1.603,-0.921311 1.902,0 l 3.315,10.201617 c 0.134,0.412 0.518,0.691 0.951,0.691 h 10.727 c 0.969,0 1.371,1.2396 0.588,1.809 l -8.678,6.305 c -0.351,0.2546 -0.498,0.706 -0.364,1.118 l 3.315,10.2016 c 0.299,0.9213 -0.755,1.6875 -1.539,1.1181 l -8.678,-6.305 c -0.35,-0.2546 -0.825,-0.2546 -1.175,0 l -8.678,6.305 c -0.784,0.5694 -1.839,-0.1968 -1.539,-1.1181 l 3.314,-10.2016 c 0.134,-0.412 -0.012,-0.8634 -0.363,-1.118 l -8.678,-6.305 c -0.784,-0.5694 -0.381,-1.809 0.588,-1.809 h 10.727 c 0.433,0 0.817,-0.279 0.951,-0.691 z"
       id="path10" />
  </mask>
  <path
     d="m 14.043311,0.60669836 c 0.263406,-0.8089311 1.407469,-0.8089311 1.669997,0 L 18.62395,9.5639394 c 0.117655,0.361745 0.454815,0.6067126 0.834999,0.6067126 h 9.418539 c 0.850803,0 1.203768,1.088396 0.516277,1.588341 l -7.619473,5.535927 c -0.308185,0.223545 -0.437255,0.619884 -0.3196,0.981629 l 2.910642,8.957226 c 0.262529,0.808922 -0.662906,1.481662 -1.351275,0.981716 l -7.619473,-5.535927 c -0.307307,-0.223544 -0.724368,-0.223544 -1.031675,0 L 6.7434379,28.215491 C 6.0550691,28.715437 5.1287561,28.042697 5.3921627,27.233775 l 2.9097632,-8.957226 c 0.117655,-0.361745 -0.01054,-0.758084 -0.318722,-0.981629 L 0.36373205,11.758993 c -0.688369,-0.499945 -0.3345263,-1.588341 0.5162768,-1.588341 H 10.298548 c 0.380183,0 0.717344,-0.2449676 0.834999,-0.6067126 z"
     fill="#d9d9d9"
     id="path21"
     inkscape:export-filename="FullGreenStar.svg"
     inkscape:export-xdpi="96"
     inkscape:export-ydpi="96"
     style="display:inline;fill:#808080;stroke-width:0.878022"
     sodipodi:insensitive="true" />
  <path
     id="path21-1"
     style="display:none;fill:#52b788;fill-opacity:1;stroke-width:0.878022"
     d="m 14.879522,-8.0984085e-4 c -0.351757,0 -0.704234,0.20295670085 -0.835937,0.60742180085 L 11.133428,9.5636434 c -0.117654,0.361744 -0.453801,0.6074216 -0.833984,0.6074216 H 0.87952205 c -0.8508022,0 -1.2039933,1.087946 -0.515625,1.58789 l 7.61914085,5.535157 c 0.308182,0.223544 0.436014,0.620677 0.318359,0.982422 l -2.910156,8.957031 c -0.2634058,0.808921 0.6631946,1.482367 1.3515625,0.982422 l 7.6191406,-5.53711 c 0.165917,-0.120693 0.36519,-0.171742 0.560547,-0.162109 V 0.00504946 c -0.0145,-6.888e-4 -0.02845,-0.005860001 -0.04297,-0.005860001 z"
     sodipodi:insensitive="true" />
  <path
     d="m 14.043311,0.60669806 c 0.263406,-0.8089311 1.407469,-0.8089311 1.669997,0 L 18.62395,9.5639404 c 0.117655,0.361745 0.454815,0.6067126 0.834999,0.6067126 h 9.418539 c 0.850803,0 1.203768,1.088396 0.516277,1.588341 l -7.619473,5.535927 c -0.308185,0.223545 -0.437255,0.619884 -0.3196,0.981629 l 2.910642,8.957226 c 0.262529,0.808922 -0.662906,1.481662 -1.351275,0.981716 l -7.619473,-5.535927 c -0.307307,-0.223544 -0.724368,-0.223544 -1.031675,0 L 6.7434379,28.215492 C 6.0550693,28.715438 5.1287562,28.042698 5.3921623,27.233776 L 8.3019259,18.27655 c 0.117655,-0.361745 -0.01054,-0.758084 -0.318722,-0.981629 L 0.36373215,11.758994 c -0.688369,-0.499945 -0.3345263,-1.588341 0.5162768,-1.588341 H 10.298548 c 0.380183,0 0.717344,-0.2449676 0.834999,-0.6067126 z"
     fill="#d9d9d9"
     id="path21-1-7"
     inkscape:export-filename="greyStar.svg"
     inkscape:export-xdpi="96"
     inkscape:export-ydpi="96"
     style="display:none;fill:#52b788;fill-opacity:1;stroke-width:0.878022"
     sodipodi:insensitive="true" />
</svg>
