<svg width="25" height="25" viewBox="0 0 25 25" fill="none" xmlns="http://www.w3.org/2000/svg">
<path d="M7.48302 0C3.90887 0 0.737647 2.51588 0.0257403 5.9765C-0.113443 6.65275 0.325971 7.32175 1.00177 7.461C1.67757 7.60012 2.34637 7.1605 2.48543 6.48438C2.95945 4.18012 5.10054 2.5 7.48302 2.5C8.17306 2.5 8.73241 1.94037 8.73241 1.25C8.73241 0.559625 8.17306 0 7.48302 0ZM17.4782 0C16.7881 0 16.2288 0.559625 16.2288 1.25C16.2288 1.94037 16.7881 2.5 17.4782 2.5C19.8634 2.5 22.0439 4.1765 22.5149 6.48438C22.6528 7.16075 23.3224 7.599 23.9985 7.461C24.6746 7.32287 25.1126 6.653 24.9746 5.9765C24.2672 2.51038 21.0566 0 17.4782 0ZM12.4806 2.5C6.27035 2.5 1.23603 7.53675 1.23603 13.75C1.23603 16.3882 2.17583 18.8627 3.69584 20.7812L1.62647 22.8515C1.13858 23.3398 1.13858 24.1602 1.62647 24.6485C2.11436 25.1366 2.89548 25.0975 3.38349 24.6094L5.45275 22.539C7.37032 24.0598 9.84363 25 12.4806 25C15.1176 25 17.5909 24.0207 19.5085 22.5L21.6168 24.6485C22.1047 25.1366 22.8858 25.0975 23.3738 24.6094C23.8617 24.1212 23.8226 23.3398 23.3347 22.8515L21.2655 20.7422C22.7629 18.9259 23.7252 16.3882 23.7252 13.75C23.7252 7.53675 18.6909 2.5 12.4806 2.5ZM12.4806 5C17.3108 5 21.2264 8.9175 21.2264 13.75C21.2264 18.5825 17.3108 22.5 12.4806 22.5C7.65043 22.5 3.73483 18.5825 3.73483 13.75C3.73483 8.9175 7.65043 5 12.4806 5ZM12.4806 7.5C11.7906 7.5 11.2312 8.05963 11.2312 8.75V12.5H7.48302C6.79297 12.5 6.23362 13.0596 6.23362 13.75C6.23362 14.4404 6.79297 15 7.48302 15H12.4806C13.1706 15 13.73 14.4404 13.73 13.75V8.75C13.73 8.05963 13.1706 7.5 12.4806 7.5Z" fill="#0B5A18"/>
</svg>
