<?xml version="1.0" encoding="UTF-8" standalone="no"?>
<!-- Created with Inkscape (http://www.inkscape.org/) -->

<svg
   width="116.58153mm"
   height="116.58153mm"
   viewBox="0 0 116.58153 116.58153"
   version="1.1"
   id="svg5"
   xml:space="preserve"
   inkscape:version="1.2 (dc2aedaf03, 2022-05-15)"
   sodipodi:docname="GastronoMateLogo.svg"
   xmlns:inkscape="http://www.inkscape.org/namespaces/inkscape"
   xmlns:sodipodi="http://sodipodi.sourceforge.net/DTD/sodipodi-0.dtd"
   xmlns="http://www.w3.org/2000/svg"
   xmlns:svg="http://www.w3.org/2000/svg"><sodipodi:namedview
     id="namedview7"
     pagecolor="#ffffff"
     bordercolor="#000000"
     borderopacity="0.25"
     inkscape:showpageshadow="2"
     inkscape:pageopacity="0.0"
     inkscape:pagecheckerboard="0"
     inkscape:deskcolor="#d1d1d1"
     inkscape:document-units="mm"
     showgrid="false"
     inkscape:lockguides="true"
     inkscape:zoom="0.73851712"
     inkscape:cx="-591.7263"
     inkscape:cy="823.27137"
     inkscape:window-width="1920"
     inkscape:window-height="1009"
     inkscape:window-x="-8"
     inkscape:window-y="-8"
     inkscape:window-maximized="1"
     inkscape:current-layer="layer1" /><defs
     id="defs2" /><g
     inkscape:label="Livello 1"
     inkscape:groupmode="layer"
     id="layer1"
     transform="translate(-8.4362413,-9.2661969)"><g
       id="g17347"><circle
         style="fill:#b2d3a8;fill-opacity:1;stroke-width:2.25792"
         id="path417"
         cx="66.727005"
         cy="67.556961"
         r="58.290764" /><ellipse
         style="display:inline;fill:#ede5a6;fill-opacity:1;stroke-width:1.27904"
         id="path417-7"
         cx="66.727829"
         cy="67.703972"
         rx="52.424603"
         ry="20.797585"
         transform="matrix(0.99999315,-0.00370083,0,1,0,0)" /><g
         id="g1663"
         transform="translate(147.69873,-226.66124)"
         style="fill:#52b788;fill-opacity:1"><path
           style="display:inline;fill:#52b788;fill-opacity:1;stroke-width:0.264583"
           d="m -106.54874,340.80429 c -0.844,-1.21251 -1.21695,-3.29266 -0.80309,-4.47938 0.172,-0.49321 1.67901,-2.85755 3.34889,-5.2541 1.66989,-2.39655 5.790007,-8.30923 9.155827,-13.13929 6.83419,-9.80727 13.784119,-20.72689 17.267753,-27.13079 3.107731,-5.71289 3.167175,-6.05796 2.382399,-13.83036 -0.46219,-4.57754 -0.308929,-7.31002 0.576838,-10.28462 0.584076,-1.96143 0.96837,-2.74147 2.780806,-5.64446 1.162971,-1.86275 2.717123,-4.03826 3.476738,-4.86679 4.662287,-5.08525 9.78107,-8.19214 14.05928,-8.53341 1.744913,-0.13919 1.960948,-0.0899 3.499444,0.79835 2.044967,1.18067 2.832183,2.43619 3.523414,5.61948 1.300743,5.99022 -1.285699,16.35887 -5.484531,21.98667 -2.885737,3.86782 -5.31381,5.63916 -11.322742,8.26023 -4.121736,1.79788 -6.249139,3.22885 -7.822501,5.2617 -1.730186,2.23547 -11.035995,19.35946 -14.532678,26.74216 -1.53115,3.23279 -4.51952,9.61886 -6.64082,14.19127 -4.99313,10.76259 -5.10816,10.96777 -6.63567,11.8365 -1.579037,0.89805 -3.045297,0.92844 -4.779027,0.0991 -1.0204,-0.48809 -1.54421,-0.90506 -2.05033,-1.63223 z"
           id="path1486"
           sodipodi:nodetypes="ssssssssssssssssssss" /><path
           d="m -57.352335,343.00889 c -1.484618,0.14518 -2.829729,-0.2999 -4.012445,-1.32764 -0.716607,-0.62272 -1.425439,-2.01899 -5.777051,-11.37986 -2.728119,-5.86852 -5.958745,-12.77443 -7.179161,-15.34646 -2.900063,-6.11189 -10.069565,-19.5014 -12.495911,-23.33693 -2.92544,-4.6245 -4.45791,-5.80999 -8.53373,-6.60152 -2.85253,-0.55396 -4.03222,-1.3901 -5.382447,-3.81496 -2.3836,-4.28064 -14.34148,-28.68411 -14.26756,-29.117 0.10239,-0.59964 0.76449,-0.96187 1.35715,-0.74256 0.36483,0.13503 2.01889,2.89077 7.11561,11.85493 l 6.640287,11.67902 0.55439,-0.22239 c 0.3049,-0.12234 0.54713,-0.2622 0.5383,-0.31078 -0.009,-0.0485 -2.908597,-5.3873 -6.443907,-11.86378 -6.71447,-12.30056 -6.80751,-12.50942 -5.8251,-13.07661 0.79578,-0.45944 1.32437,0.2234 4.70285,6.0751 1.81199,3.13845 4.89333,8.31795 6.847407,11.50998 3.49944,5.71638 3.55949,5.79851 3.99196,5.45906 0.43703,-0.34309 0.40894,-0.39802 -6.139957,-12.00442 -6.94832,-12.31429 -6.99984,-12.42676 -5.96522,-13.02409 0.23218,-0.13405 0.62058,-0.1177 0.86313,0.0363 0.24254,0.15402 3.53939,5.36127 7.326327,11.57163 3.78695,6.21036 6.98139,11.34324 7.09877,11.40639 0.11737,0.0631 0.43031,-0.0104 0.69542,-0.16348 l 0.48203,-0.27831 -6.88697,-11.59052 c -6.111277,-10.28508 -6.870077,-11.65351 -6.737087,-12.14985 0.0824,-0.30762 0.2948,-0.643 0.47194,-0.74527 0.84166,-0.48593 1.4279,0.28374 9.293557,12.20144 4.25603,6.44854 8.33355,12.61823 9.06117,13.71044 2.002696,3.00617 2.117676,3.7653 1.127676,7.44507 -0.59129,2.19899 -0.786616,3.61654 -0.68485,4.97811 l 0.1423,1.90369 5.84704,10.06684 c 6.289943,10.82935 6.513556,11.17016 19.205987,29.27128 6.250219,8.91365 7.374143,10.62451 7.59649,11.56353 0.741885,3.13319 -1.376368,6.0456 -4.628396,6.36361 z"
           style="display:inline;fill:#52b788;fill-opacity:1;stroke-width:0.264583"
           id="path1496" /></g><ellipse
         style="display:inline;fill:#ede5a6;fill-opacity:1;stroke-width:0.369908"
         id="path417-7-5"
         cx="66.728119"
         cy="69.551338"
         rx="12.144948"
         ry="7.5088387"
         transform="matrix(0.99998337,-0.00576765,0,1,0,0)" /><g
         id="g1799"
         transform="translate(140.82406,-208.261)"
         style="fill:#105241;fill-opacity:1"><g
           id="g17283"
           transform="translate(0,-3.3391808)"><path
             d="m -44.4526,290.08473 c -0.347519,0.74262 -1.054685,1.36212 -1.814833,1.58985 -0.452323,0.13556 -2.746073,0.0254 -11.354576,-0.54532 -5.933262,-0.39334 -11.670997,-0.72274 -12.750516,-0.73198 -1.845193,-0.0158 -2.012567,0.008 -2.794133,0.39147 -0.457254,0.22458 -1.374466,0.821 -2.03826,1.32538 -2.594728,1.97161 -4.017668,2.34483 -8.378508,2.1976 -3.632751,-0.12273 -5.819351,-0.30901 -9.058911,-0.77199 -7.487123,-1.07003 -13.437393,-3.33333 -13.437393,-5.11115 0,-0.54238 0.43536,-1.10019 0.94781,-1.21439 0.18455,-0.0411 9.167983,-0.10078 19.963173,-0.13278 12.097101,-0.0357 20.670328,-0.12289 22.34531,-0.22742 7.559426,-0.47139 10.227477,-0.64966 13.072424,-0.87345 l 3.107619,-0.24446 0.742414,0.37005 c 1.484212,0.73979 2.1317,2.51837 1.44838,3.97853 z"
             style="fill:#105241;fill-opacity:1;stroke-width:0.150982"
             id="path1519" /><text
             xml:space="preserve"
             style="font-weight:bold;font-size:15.4122px;line-height:1;font-family:'Book Antiqua';-inkscape-font-specification:'Book Antiqua Bold';fill:#105241;fill-opacity:1;stroke-width:1.2332"
             x="-75.190285"
             y="283.61911"
             id="text577"><tspan
               sodipodi:role="line"
               style="font-style:oblique;font-variant:normal;font-weight:bold;font-stretch:normal;font-family:Helvetica;-inkscape-font-specification:'Helvetica Bold Oblique';text-align:center;text-anchor:middle;fill:#105241;fill-opacity:1;stroke-width:1.2332"
               x="-75.190285"
               y="283.61911"
               id="tspan1657">GastronoMate</tspan></text></g></g></g></g></svg>
