<?xml version="1.0" encoding="UTF-8" standalone="no"?>
<!-- Created with Inkscape (http://www.inkscape.org/) -->

<svg
   width="116.58153mm"
   height="116.58153mm"
   viewBox="0 0 116.58153 116.58153"
   version="1.1"
   id="svg5"
   xml:space="preserve"
   sodipodi:docname="GastronoMateLogo.svg"
   inkscape:version="1.2 (dc2aedaf03, 2022-05-15)"
   xmlns:inkscape="http://www.inkscape.org/namespaces/inkscape"
   xmlns:sodipodi="http://sodipodi.sourceforge.net/DTD/sodipodi-0.dtd"
   xmlns="http://www.w3.org/2000/svg"
   xmlns:svg="http://www.w3.org/2000/svg"><sodipodi:namedview
     id="namedview34"
     pagecolor="#ffffff"
     bordercolor="#000000"
     borderopacity="0.25"
     inkscape:showpageshadow="2"
     inkscape:pageopacity="0.0"
     inkscape:pagecheckerboard="0"
     inkscape:deskcolor="#d1d1d1"
     inkscape:document-units="mm"
     showgrid="false"
     inkscape:zoom="1.3303695"
     inkscape:cx="98.468885"
     inkscape:cy="212.72286"
     inkscape:window-width="1920"
     inkscape:window-height="1009"
     inkscape:window-x="-8"
     inkscape:window-y="-8"
     inkscape:window-maximized="1"
     inkscape:current-layer="g17347" /><defs
     id="defs2" /><g
     id="layer1"
     transform="translate(-8.4362413,-9.2661969)"><g
       id="g17347"><circle
         style="display:none;fill:#b2d3a8;fill-opacity:1;stroke-width:2.25792"
         id="path417"
         cx="66.727005"
         cy="67.556961"
         r="58.290764" /><ellipse
         style="display:none;fill:#ede5a6;fill-opacity:1;stroke-width:1.27904"
         id="path417-7"
         cx="66.727829"
         cy="67.703972"
         rx="52.424603"
         ry="20.797585"
         transform="matrix(0.99999315,-0.00370083,0,1,0,0)" /><g
         id="g1663"
         transform="translate(149.33299,-227.0195)"
         style="display:none;fill:#52b788;fill-opacity:1"
         sodipodi:insensitive="true"><path
           style="display:inline;fill:#52b788;fill-opacity:1;stroke-width:0.264583"
           d="m -106.54874,340.80429 c -0.844,-1.21251 -1.21695,-3.29266 -0.80309,-4.47938 0.172,-0.49321 1.67901,-2.85755 3.34889,-5.2541 1.66989,-2.39655 5.790007,-8.30923 9.155827,-13.13929 6.83419,-9.80727 13.784119,-20.72689 17.267753,-27.13079 3.107731,-5.71289 3.167175,-6.05796 2.382399,-13.83036 -0.46219,-4.57754 -0.308929,-7.31002 0.576838,-10.28462 0.584076,-1.96143 0.96837,-2.74147 2.780806,-5.64446 1.162971,-1.86275 2.717123,-4.03826 3.476738,-4.86679 4.662287,-5.08525 9.78107,-8.19214 14.05928,-8.53341 1.744913,-0.13919 1.960948,-0.0899 3.499444,0.79835 2.044967,1.18067 2.832183,2.43619 3.523414,5.61948 1.300743,5.99022 -1.285699,16.35887 -5.484531,21.98667 -2.885737,3.86782 -5.31381,5.63916 -11.322742,8.26023 -4.121736,1.79788 -6.249139,3.22885 -7.822501,5.2617 -1.730186,2.23547 -11.035995,19.35946 -14.532678,26.74216 -1.53115,3.23279 -4.51952,9.61886 -6.64082,14.19127 -4.99313,10.76259 -5.10816,10.96777 -6.63567,11.8365 -1.579037,0.89805 -3.045297,0.92844 -4.779027,0.0991 -1.0204,-0.48809 -1.54421,-0.90506 -2.05033,-1.63223 z"
           id="path1486" /><path
           d="m -57.352335,343.00889 c -1.484618,0.14518 -2.829729,-0.2999 -4.012445,-1.32764 -0.716607,-0.62272 -1.425439,-2.01899 -5.777051,-11.37986 -2.728119,-5.86852 -5.958745,-12.77443 -7.179161,-15.34646 -2.900063,-6.11189 -10.069565,-19.5014 -12.495911,-23.33693 -2.92544,-4.6245 -4.45791,-5.80999 -8.53373,-6.60152 -2.85253,-0.55396 -4.03222,-1.3901 -5.382447,-3.81496 -2.3836,-4.28064 -14.34148,-28.68411 -14.26756,-29.117 0.10239,-0.59964 0.76449,-0.96187 1.35715,-0.74256 0.36483,0.13503 2.01889,2.89077 7.11561,11.85493 l 6.640287,11.67902 0.55439,-0.22239 c 0.3049,-0.12234 0.54713,-0.2622 0.5383,-0.31078 -0.009,-0.0485 -2.908597,-5.3873 -6.443907,-11.86378 -6.71447,-12.30056 -6.80751,-12.50942 -5.8251,-13.07661 0.79578,-0.45944 1.32437,0.2234 4.70285,6.0751 1.81199,3.13845 4.89333,8.31795 6.847407,11.50998 3.49944,5.71638 3.55949,5.79851 3.99196,5.45906 0.43703,-0.34309 0.40894,-0.39802 -6.139957,-12.00442 -6.94832,-12.31429 -6.99984,-12.42676 -5.96522,-13.02409 0.23218,-0.13405 0.62058,-0.1177 0.86313,0.0363 0.24254,0.15402 3.53939,5.36127 7.326327,11.57163 3.78695,6.21036 6.98139,11.34324 7.09877,11.40639 0.11737,0.0631 0.43031,-0.0104 0.69542,-0.16348 l 0.48203,-0.27831 -6.88697,-11.59052 c -6.111277,-10.28508 -6.870077,-11.65351 -6.737087,-12.14985 0.0824,-0.30762 0.2948,-0.643 0.47194,-0.74527 0.84166,-0.48593 1.4279,0.28374 9.293557,12.20144 4.25603,6.44854 8.33355,12.61823 9.06117,13.71044 2.002696,3.00617 2.117676,3.7653 1.127676,7.44507 -0.59129,2.19899 -0.786616,3.61654 -0.68485,4.97811 l 0.1423,1.90369 5.84704,10.06684 c 6.289943,10.82935 6.513556,11.17016 19.205987,29.27128 6.250219,8.91365 7.374143,10.62451 7.59649,11.56353 0.741885,3.13319 -1.376368,6.0456 -4.628396,6.36361 z"
           style="display:inline;fill:#52b788;fill-opacity:1;stroke-width:0.264583"
           id="path1496" /></g><path
         id="path1486-4"
         style="display:inline;fill:#52b788;fill-opacity:1;stroke-width:0.264583"
         d="m -103.99518,245.40077 c -0.11194,0.002 -0.21313,0.0436 -0.31833,0.10439 -0.17714,0.10227 -0.38941,0.43755 -0.47181,0.74517 -0.13299,0.49634 0.6258,1.86459 6.737059,12.14965 l 6.886919,11.59051 -0.482142,0.27853 c -0.265109,0.15308 -0.577678,0.2264 -0.695048,0.1633 -0.117379,-0.0632 -3.311848,-5.1962 -7.098791,-11.40654 -3.786927,-6.21035 -7.084147,-11.41737 -7.326687,-11.57139 -0.24255,-0.154 -0.63081,-0.17019 -0.86299,-0.0362 -1.03461,0.59733 -0.9833,0.70974 5.96501,13.02401 6.548885,11.60638 6.577219,11.66136 6.14019,12.00444 -0.432469,0.33945 -0.492571,0.25726 -3.992004,-5.4591 -1.954076,-3.19203 -5.035656,-8.37145 -6.847646,-11.50989 -3.37847,-5.85169 -3.90677,-6.53452 -4.70255,-6.07508 -0.9824,0.56718 -0.88949,0.77566 5.82496,13.0762 3.53531,6.47646 6.435055,11.81538 6.444055,11.86388 0.0088,0.0486 -0.233569,0.18875 -0.538468,0.31109 l -0.554489,0.22221 -6.639908,-11.67888 c -5.0967,-8.96414 -6.75101,-11.72006 -7.11584,-11.85509 -0.59266,-0.21931 -1.25463,0.14295 -1.35702,0.74259 -0.0739,0.43289 11.88374,24.83645 14.26734,29.11709 1.350227,2.42485 2.530094,3.26079 5.382619,3.81475 3.783266,0.73472 5.376412,1.81071 7.925098,5.65961 h 4.917012 l -2.864941,-4.93252 -0.14211,-1.90376 c -0.101766,-1.36157 0.09342,-2.77901 0.684712,-4.97799 0.989999,-3.67977 0.875113,-4.43886 -1.127579,-7.44502 -0.727619,-1.09221 -4.805441,-7.26176 -9.061463,-13.71028 -6.882438,-10.42797 -8.191568,-12.32099 -8.975158,-12.30571 z m 50.758138,2.18126 c -0.289679,0.001 -0.630375,0.0241 -1.066602,0.0589 -4.278202,0.34127 -9.396812,3.4486 -14.05909,8.53384 -0.759613,0.82853 -2.313822,3.00362 -3.47679,4.86637 -1.812433,2.90299 -2.196634,3.68319 -2.780709,5.64462 -0.885765,2.97459 -1.038898,5.70711 -0.576709,10.28464 0.778729,7.71251 0.722218,8.11806 -2.315104,13.70563 h 4.861202 c 0.31356,-0.50189 0.56716,-0.88447 0.740523,-1.10846 1.573359,-2.03284 3.700534,-3.46382 7.822261,-5.2617 6.00892,-2.62107 8.437092,-4.39266 11.322823,-8.26048 4.198824,-5.62778 6.78516,-15.99605 5.48442,-21.98625 -0.69123,-3.18329 -1.478337,-4.43914 -3.523299,-5.61981 -1.15387,-0.66618 -1.563892,-0.86052 -2.432926,-0.85732 z m -30.368173,53.36161 c -3.329986,5.31549 -7.299358,11.33 -11.242207,16.98811 -3.365814,4.83005 -7.485628,10.74271 -9.155518,13.13925 -1.66987,2.39654 -3.17715,4.76073 -3.34915,5.25394 -0.41386,1.18672 -0.0409,3.2668 0.80306,4.47931 0.50612,0.72717 1.03012,1.14437 2.05052,1.63246 1.73372,0.82934 3.2,0.79881 4.779034,-0.0992 1.527507,-0.86873 1.64265,-1.07392 6.63577,-11.83649 2.121296,-4.57239 5.109275,-10.95859 6.640422,-14.19138 1.456203,-3.07454 3.920474,-7.8296 6.424931,-12.50414 2.21523,4.16814 4.390963,8.39654 5.697326,11.1497 1.220414,2.57203 4.450776,9.47785 7.17889,15.34635 4.351603,9.36085 5.06082,10.75695 5.777425,11.37967 1.182714,1.02774 2.527544,1.47275 4.012159,1.32757 3.252021,-0.31801 5.370541,-3.23025 4.628658,-6.36344 -0.222347,-0.93902 -1.34623,-2.64999 -7.596436,-11.56363 -10.317697,-14.71443 -12.409906,-17.71876 -16.206763,-24.13806 z"
         transform="translate(148.33156,-229.8254)"
         inkscape:export-filename="GastronoMateLogo.svg"
         inkscape:export-xdpi="96"
         inkscape:export-ydpi="96" /><ellipse
         style="display:none;fill:#ffffff;fill-opacity:1;stroke-width:0.369908"
         id="path417-7-5"
         cx="67.36087"
         cy="67.427124"
         rx="12.144948"
         ry="7.5088387"
         transform="matrix(0.99998337,-0.00576765,0,1,0,0)" /><g
         id="g1799"
         transform="translate(140.26154,-210.79232)"
         style="fill:#105241;fill-opacity:1"><g
           id="g17283"
           transform="translate(-0.84377463,-2.9790551)"><path
             d="m -41.785321,289.72647 c -0.347519,0.74262 -1.054685,1.36212 -1.814833,1.58985 -0.452323,0.13556 -2.746073,0.0254 -11.354576,-0.54532 -5.933262,-0.39334 -11.670997,-0.72274 -12.750516,-0.73198 -1.845193,-0.0158 -2.012567,0.008 -2.794133,0.39147 -0.457254,0.22458 -1.374466,0.821 -2.03826,1.32538 -2.594728,1.97161 -4.017668,2.34483 -8.378508,2.1976 -3.632751,-0.12273 -5.819351,-0.30901 -9.058911,-0.77199 -7.487121,-1.07003 -13.437392,-3.33333 -13.437392,-5.11115 0,-0.54238 0.43536,-1.10019 0.94781,-1.21439 0.18455,-0.0411 9.167982,-0.10078 19.963172,-0.13278 12.097101,-0.0357 20.670328,-0.12289 22.34531,-0.22742 7.559426,-0.47139 10.227477,-0.64966 13.072424,-0.87345 l 3.107619,-0.24446 0.742414,0.37005 c 1.484212,0.73979 2.1317,2.51837 1.44838,3.97853 z"
             style="fill:#105241;fill-opacity:1;stroke-width:0.150982"
             id="path1519" /><text
             xml:space="preserve"
             style="font-weight:bold;font-size:11.6495px;line-height:1;font-family:'Book Antiqua';-inkscape-font-specification:'Book Antiqua Bold';fill:#105241;fill-opacity:1;stroke-width:0.932131"
             x="-72.465645"
             y="284.05267"
             id="text577"><tspan
               style="font-style:normal;font-variant:normal;font-weight:bold;font-stretch:normal;font-family:Helvetica;-inkscape-font-specification:'Helvetica Bold';text-align:center;text-anchor:middle;fill:#105241;fill-opacity:1;stroke-width:0.932131"
               x="-72.465645"
               y="284.05267"
               id="tspan1657">GASTRONOMATE</tspan></text></g></g></g></g></svg>
